<?xml version="1.0" encoding="utf-8"?>
<!-- Generator: Adobe Illustrator 24.0.2, SVG Export Plug-In . SVG Version: 6.00 Build 0)  -->
<svg version="1.1" id="Layer_1" xmlns="http://www.w3.org/2000/svg" xmlns:xlink="http://www.w3.org/1999/xlink" x="0px" y="0px"
	 viewBox="0 0 595.28 841.89" style="enable-background:new 0 0 595.28 841.89;" xml:space="preserve">
<style type="text/css">
	.st0{fill:#E30613;stroke:#000000;stroke-width:5;stroke-miterlimit:10;}
	.st1{fill:#B31B60;stroke:#000000;stroke-width:5;stroke-miterlimit:10;}
	.st2{fill:#E6007E;stroke:#000000;stroke-width:5;stroke-miterlimit:10;}
	.st3{stroke:#000000;stroke-width:5;stroke-miterlimit:10;}
	.st4{fill:#E30A13;stroke:#000000;stroke-width:5;stroke-miterlimit:10;}
	.st5{fill:#E30A13;}
	.st6{fill:#E6007E;}
	.st7{fill:#FFFFFF;}
</style>
<ellipse class="st0" cx="347.04" cy="446.38" rx="20.53" ry="19.44"/>
<ellipse class="st0" cx="285.03" cy="444.3" rx="16.67" ry="14.96"/>
<ellipse transform="matrix(0.5478 -0.8366 0.8366 0.5478 -231.8659 409.3117)" class="st1" cx="262.71" cy="419.15" rx="26.43" ry="13.39"/>
<circle class="st2" cx="314" cy="362" r="94"/>
<ellipse class="st3" cx="304.82" cy="329.13" rx="2.61" ry="22.61"/>
<ellipse class="st3" cx="344.43" cy="329.13" rx="2.61" ry="22.61"/>
<circle class="st4" cx="332.04" cy="388.26" r="1.74"/>
<ellipse class="st5" cx="287.7" cy="365.74" rx="8.52" ry="3.74"/>
<ellipse class="st5" cx="360.04" cy="365.74" rx="8.52" ry="3.74"/>
<ellipse transform="matrix(0.6698 -0.7425 0.7425 0.6698 -187.9718 412.8307)" class="st2" cx="370.23" cy="417.78" rx="16.17" ry="29.91"/>
<ellipse transform="matrix(0.866 -0.5 0.5 0.866 -159.3815 232.3644)" class="st6" cx="353.91" cy="413.59" rx="39.7" ry="27.57"/>
<circle class="st7" cx="303.07" cy="311.46" r="1.36"/>
<circle class="st7" cx="342.78" cy="311.46" r="1.36"/>
</svg>
